<!-- SVG Favicon -->
<svg xmlns="http://www.w3.org/2000/svg" viewBox="0 0 32 32" width="32" height="32">
  <defs>
    <linearGradient id="greenGradient" x1="0%" y1="0%" x2="100%" y2="100%">
      <stop offset="0%" style="stop-color:#1db954;stop-opacity:1" />
      <stop offset="100%" style="stop-color:#169c46;stop-opacity:1" />
    </linearGradient>
  </defs>
  <circle cx="16" cy="16" r="16" fill="url(#greenGradient)"/>
  <g fill="#121212">
    <path d="M10,11 C10,10.4 10.4,10 11,10 L13,10 C13.6,10 14,10.4 14,11 L14,21 C14,21.6 13.6,22 13,22 L11,22 C10.4,22 10,21.6 10,21 Z" />
    <path d="M16,11 C16,10.4 16.4,10 17,10 L19,10 C21,10 23,12 23,14 C23,16 21,18 19,18 L18,18 L18,21 C18,21.6 17.6,22 17,22 L17,22 C16.4,22 16,21.6 16,21 Z M18,14 L19,14 C19.5,14 20,14.5 20,15 C20,15.5 19.5,16 19,16 L18,16 Z" />
  </g>
</svg>
