<?xml version="1.0" encoding="UTF-8" standalone="no"?>
<svg width="1200" height="600" xmlns="http://www.w3.org/2000/svg" xmlns:xlink="http://www.w3.org/1999/xlink">
  <!-- Hero background with music-inspired elements -->
  <defs>
    <linearGradient id="grad1" x1="0%" y1="0%" x2="100%" y2="100%">
      <stop offset="0%" style="stop-color:#1db954;stop-opacity:0.1" />
      <stop offset="100%" style="stop-color:#121212;stop-opacity:0.5" />
    </linearGradient>
    <linearGradient id="grad2" x1="0%" y1="100%" x2="100%" y2="0%">
      <stop offset="0%" style="stop-color:#1db954;stop-opacity:0.1" />
      <stop offset="100%" style="stop-color:#191414;stop-opacity:0.5" />
    </linearGradient>
  </defs>

  <!-- Background -->
  <rect width="100%" height="100%" fill="#121212" />
  
  <!-- Decorative elements -->
  <circle cx="200" cy="150" r="300" fill="url(#grad1)" opacity="0.7" />
  <circle cx="1000" cy="450" r="250" fill="url(#grad2)" opacity="0.6" />
  
  <!-- Music waves -->
  <path d="M0,300 C200,350 400,250 600,300 C800,350 1000,250 1200,300" stroke="#1db954" stroke-width="2" fill="none" opacity="0.3" />
  <path d="M0,350 C200,400 400,300 600,350 C800,400 1000,300 1200,350" stroke="#1db954" stroke-width="3" fill="none" opacity="0.4" />
  <path d="M0,400 C200,450 400,350 600,400 C800,450 1000,350 1200,400" stroke="#1db954" stroke-width="4" fill="none" opacity="0.5" />
  
  <!-- Music note elements -->
  <g opacity="0.3">
    <circle cx="250" cy="200" r="10" fill="#ffffff" />
    <path d="M250,200 L250,150 L260,150 L260,190" stroke="#ffffff" stroke-width="2" fill="none" />
  </g>
  
  <g opacity="0.4">
    <circle cx="800" cy="180" r="12" fill="#ffffff" />
    <path d="M800,180 L800,120 L812,120 L812,170" stroke="#ffffff" stroke-width="2" fill="none" />
  </g>
  
  <g opacity="0.25">
    <circle cx="480" cy="450" r="8" fill="#ffffff" />
    <path d="M480,450 L480,410 L488,410 L488,440" stroke="#ffffff" stroke-width="2" fill="none" />
  </g>
  
  <g opacity="0.35">
    <circle cx="950" cy="300" r="10" fill="#ffffff" />
    <path d="M950,300 L950,250 L960,250 L960,290" stroke="#ffffff" stroke-width="2" fill="none" />
  </g>
  
  <!-- Sound bars -->
  <g transform="translate(150, 100)" opacity="0.2">
    <rect x="0" y="0" width="10" height="40" fill="#1db954" />
    <rect x="20" y="10" width="10" height="30" fill="#1db954" />
    <rect x="40" y="5" width="10" height="35" fill="#1db954" />
    <rect x="60" y="15" width="10" height="25" fill="#1db954" />
    <rect x="80" y="0" width="10" height="40" fill="#1db954" />
  </g>
  
  <g transform="translate(900, 200)" opacity="0.2">
    <rect x="0" y="0" width="10" height="50" fill="#1db954" />
    <rect x="20" y="10" width="10" height="40" fill="#1db954" />
    <rect x="40" y="20" width="10" height="30" fill="#1db954" />
    <rect x="60" y="15" width="10" height="35" fill="#1db954" />
    <rect x="80" y="5" width="10" height="45" fill="#1db954" />
  </g>
</svg>
