<?xml version="1.0" encoding="UTF-8" standalone="no"?>
<svg width="600" height="100" xmlns="http://www.w3.org/2000/svg">
  <!-- Payment Methods -->
  <rect width="600" height="100" fill="#f9f9f9" rx="10" ry="10"/>
  
  <!-- Visa -->
  <g transform="translate(30, 25)">
    <rect width="80" height="50" fill="#1A1F71" rx="5" ry="5"/>
    <path d="M32,20 L36,40 L41,20 L46,20 L38,45 L33,45 L25,20 Z" fill="white"/>
    <path d="M46,20 L51,20 L55,34 L56,30 C56,30 57,25 57,20 L62,20 L62,45 L57,45 L52,28 L48,45 L43,45 L43,20 Z" fill="white"/>
    <path d="M63,20 L69,20 L74,45 L68,45 L67,40 L65,40 L64,45 L58,45 Z M66,35 L68,35 L67,28 Z" fill="white"/>
    <path d="M75,35 C75,30 78,29 81,29 C84,29 85,30 85,32 C85,35 82,36 82,36 C82,36 86,36 86,40 C86,43 84,45 80,45 C76,45 74,43 74,40 L79,40 C79,41 79,42 80,42 C81,42 81,41 81,40 C81,38 78,38 78,35 C78,32 79,31 81,31 C83,31 83,32 83,33 L78,33 C78,33 75,33 75,35 Z" fill="white"/>
  </g>
  
  <!-- Mastercard -->
  <g transform="translate(140, 25)">
    <circle cx="25" cy="25" r="25" fill="#FF5F00"/>
    <circle cx="55" cy="25" r="25" fill="#EB001B"/>
    <path d="M40,5 A25,25 0 0 0 40,45 A25,25 0 0 0 40,5 Z" fill="#F79E1B"/>
  </g>
  
  <!-- PayPal -->
  <g transform="translate(230, 25)">
    <rect width="80" height="50" fill="#003087" rx="5" ry="5"/>
    <path d="M25,15 C22,15 20,17 20,20 C20,24 23,27 28,27 L32,27 L31,33 L27,33 C26,33 26,33 25,34 L25,37 L31,37 L30,43 L36,43 L37,37 L40,37 L41,33 L37,33 L38,27 C44,27 47,23 47,19 C47,17 46,15 44,15 Z M26,19 C26,18 27,18 28,18 L42,18 C43,18 43,18 43,19 C43,21 41,23 38,23 L34,23 L33,27 L29,27 L31,19 Z" fill="white"/>
  </g>
  
  <!-- American Express -->
  <g transform="translate(340, 25)">
    <rect width="80" height="50" fill="#2E77BC" rx="5" ry="5"/>
    <path d="M23,20 L38,20 L40,23 L42,20 L70,20 L70,35 L42,35 L40,32 L38,35 L23,35 Z" fill="white"/>
    <path d="M26,24 L26,32 L31,32 L33,29 L35,32 L65,32 L65,24 L35,24 L33,27 L31,24 Z" fill="#2E77BC"/>
    <path d="M38,27 L45,27 L45,28 L39,28 L39,29 L45,29 L45,31 L38,31 Z M47,27 L54,27 L54,28 L48,28 L48,29 L54,29 L54,31 L47,31 Z" fill="white"/>
  </g>
  
  <!-- Apple Pay -->
  <g transform="translate(450, 25)">
    <rect width="80" height="50" fill="#000000" rx="5" ry="5"/>
    <path d="M32,20 C31,22 29,24 27,24 C25,24 24,22 24,20 C24,18 25,16 27,16 C29,16 31,18 32,20 Z M24,25 C22,25 19,27 19,32 C19,37 22,43 24,43 C25,43 26,42 27,42 C28,42 29,43 30,43 C32,43 33,39 33,39 C33,39 29,38 29,34 C29,31 32,30 32,30 C32,30 30,25 27,25 C26,25 25,25 24,25 Z M40,19 L40,43 L43,43 L43,35 L47,35 C50,35 53,32 53,27 C53,22 50,19 47,19 Z M43,22 L46,22 C48,22 50,24 50,27 C50,30 48,32 46,32 L43,32 Z M55,19 L55,43 L58,43 L58,33 L61,33 C62,33 62,33 63,35 L65,43 L68,43 L66,34 C65,32 64,31 63,31 C65,30 67,28 67,26 C67,22 64,19 60,19 Z M58,22 L60,22 C62,22 64,23 64,26 C64,28 62,30 60,30 L58,30 Z" fill="white"/>
  </g>
</svg>
