<?xml version="1.0" encoding="UTF-8" standalone="no"?>
<svg width="200" height="200" xmlns="http://www.w3.org/2000/svg">
  <!-- Spotify Logo -->
  <circle cx="100" cy="100" r="100" fill="#1DB954"/>
  <path d="M100,35 C64.1,35 35,64.1 35,100 C35,135.9 64.1,165 100,165 C135.9,165 165,135.9 165,100 C165,64.1 135.9,35 100,35 Z M131.2,130.8 C129.6,133.4 126.1,134.2 123.5,132.6 C110.5,124.8 94,123.1 71.5,127.4 C68.6,128 65.7,126.3 65.1,123.3 C64.5,120.4 66.2,117.5 69.2,116.9 C94.2,112.2 112.7,114.2 127.4,123.1 C130,124.7 130.8,128.2 129.2,130.8 Z M136.6,113.2 C134.5,116.5 130.1,117.4 126.8,115.3 C111.5,106 89,102.9 73.6,108.7 C70,110 66.1,108.1 64.8,104.5 C63.5,100.9 65.4,97 69,95.7 C87.6,88.8 113.3,92.3 131.3,103.4 C134.6,105.5 135.5,109.9 133.4,113.2 Z M137.3,94.9 C119.1,84.3 88.7,83.3 68.2,89.7 C63.9,91.2 59.3,88.9 57.8,84.6 C56.3,80.3 58.6,75.7 62.9,74.2 C86.4,66.9 120.5,68 141.4,80.3 C145.3,82.6 146.4,87.7 144.1,91.5 C141.8,95.4 136.7,96.5 132.9,94.2 L137.3,94.9 Z" fill="white"/>
</svg>
